# Exported from Figuro at https://www.figuro.io

mtllib camera.mtl
g model
v 324.2950748976162 225.9251164590609 -28.35527830154639
v 368.2689076945372 234.67205564345375 -28.35527830154639
v 368.2689076945372 234.67205564345375 136.2358705511184
v 324.2950748976162 225.9251164590609 136.2358705511184
v 287.0158595202395 201.01594110550516 -28.35527830154639
v 287.0158595202395 201.01594110550516 136.2358705511184
v 262.1066841666837 163.73672572812842 -28.35527830154639
v 262.1066841666837 163.73672572812842 136.2358705511184
v 253.35974498229086 119.7628929312074 -28.35527830154639
v 253.35974498229086 119.7628929312074 136.2358705511184
v 262.1066841666837 75.78906013428644 -28.35527830154639
v 262.1066841666837 75.78906013428644 136.2358705511184
v 287.0158595202395 38.50984475690969 -28.35527830154639
v 287.0158595202395 38.50984475690969 136.2358705511184
v 324.2950748976162 13.600669403353923 -28.35527830154639
v 324.2950748976162 13.600669403353923 136.2358705511184
v 368.2689076945372 4.853730218961122 -28.35527830154639
v 368.2689076945372 4.853730218961122 136.2358705511184
v 412.24274049145816 13.600669403353923 -28.35527830154639
v 412.24274049145816 13.600669403353923 136.2358705511184
v 449.5219558688349 38.509844756909665 -28.35527830154639
v 449.5219558688349 38.509844756909665 136.2358705511184
v 474.43113122239066 75.78906013428636 -28.35527830154639
v 474.43113122239066 75.78906013428636 136.2358705511184
v 483.1780704067835 119.76289293120738 -28.35527830154639
v 483.1780704067835 119.76289293120738 136.2358705511184
v 474.43113122239066 163.73672572812845 -28.35527830154639
v 474.43113122239066 163.73672572812845 136.2358705511184
v 449.52195586883494 201.0159411055051 -28.35527830154639
v 449.52195586883494 201.0159411055051 136.2358705511184
v 412.2427404914583 225.9251164590609 -28.35527830154639
v 412.2427404914583 225.9251164590609 136.2358705511184
v 435.92844600140444 254.48245433908585 -66.18366353080364
v 415.72946219983385 282.35711658579874 -85.39298024827725
v 415.72946219983385 282.35711658579874 -133.24006348457021
v 435.92844600140444 254.48245433908585 -152.4493802020438
v 345.2183057449203 254.48245433908585 -152.4493802020438
v 365.4172895464909 282.35711658579874 -133.24006348457021
v 365.4172895464909 282.35711658579874 -85.39298024827725
v 345.2183057449203 254.48245433908585 -66.18366353080364
v 2.9231799740531983 -14.546068289261477 -228.93390079225344
v 550.7908513543405 -14.546068289261477 -228.93390079225344
v 550.7908513543405 254.48245433908585 -228.93390079225344
v 2.9231799740531983 254.48245433908585 -228.93390079225344
v 550.7908513543405 -14.546068289261477 -20.99380239855394
v 550.7908513543405 254.48245433908585 -20.99380239855394
v 2.9231799740531983 -14.546068289261477 -20.99380239855394
v 2.9231799740531983 254.48245433908585 -20.99380239855394
# 48 vertices
vt 1.2667776363188132 1.1107628058654155
vt 1.4385504206817858 1.1107628058654155
vt 1.4385504206817858 0.4678286306596937
vt 1.2667776363188132 0.4678286306596937
vt 1.1211557012509354 1.1107628058654155
vt 1.2667776363188132 1.1107628058654155
vt 1.2667776363188132 0.4678286306596937
vt 1.1211557012509354 0.4678286306596937
vt -0.11076280586541559 1.6395965848755016
vt -0.11076280586541559 1.7852185199433794
vt 0.5321713693403063 1.7852185199433794
vt 0.5321713693403063 1.6395965848755016
vt -0.11076280586541559 1.4678238005125288
vt -0.11076280586541559 1.6395965848755016
vt 0.5321713693403063 1.6395965848755016
vt 0.5321713693403063 1.4678238005125288
vt -0.11076280586541559 1.2960510161495564
vt -0.11076280586541559 1.4678238005125288
vt 0.5321713693403063 1.4678238005125288
vt 0.5321713693403063 1.2960510161495564
vt -0.11076280586541559 1.1504290810816784
vt -0.11076280586541559 1.2960510161495564
vt 0.5321713693403063 1.2960510161495564
vt 0.5321713693403063 1.1504290810816784
vt 1.2667776363188132 0.8892371941345845
vt 1.1211557012509354 0.8892371941345845
vt 1.1211557012509354 1.5321713693403063
vt 1.2667776363188132 1.5321713693403063
vt 1.4385504206817858 0.8892371941345845
vt 1.2667776363188132 0.8892371941345845
vt 1.2667776363188132 1.5321713693403063
vt 1.4385504206817858 1.5321713693403063
vt 1.6103232050447585 0.8892371941345845
vt 1.4385504206817858 0.8892371941345845
vt 1.4385504206817858 1.5321713693403063
vt 1.6103232050447585 1.5321713693403063
vt 1.7559451401126362 0.8892371941345845
vt 1.6103232050447585 0.8892371941345845
vt 1.6103232050447585 1.5321713693403063
vt 1.7559451401126362 1.5321713693403063
vt 0.11076280586541559 1.2960510161495562
vt 0.11076280586541559 1.1504290810816784
vt -0.5321713693403063 1.1504290810816784
vt -0.5321713693403063 1.2960510161495562
vt 0.11076280586541559 1.4678238005125288
vt 0.11076280586541559 1.2960510161495562
vt -0.5321713693403063 1.2960510161495562
vt -0.5321713693403063 1.4678238005125288
vt 0.11076280586541559 1.6395965848755019
vt 0.11076280586541559 1.4678238005125288
vt -0.5321713693403063 1.4678238005125288
vt -0.5321713693403063 1.6395965848755019
vt 0.11076280586541559 1.7852185199433794
vt 0.11076280586541559 1.6395965848755019
vt -0.5321713693403063 1.6395965848755019
vt -0.5321713693403063 1.7852185199433794
vt 1.610323205044759 1.1107628058654155
vt 1.7559451401126365 1.1107628058654155
vt 1.7559451401126365 0.4678286306596937
vt 1.610323205044759 0.4678286306596937
vt 1.4385504206817858 1.1107628058654155
vt 1.610323205044759 1.1107628058654155
vt 1.610323205044759 0.4678286306596937
vt 1.4385504206817858 0.4678286306596937
vt -1.4385504206817858 1.9166877173572412
vt -1.2667776363188132 1.8825199861682065
vt -1.1211557012509354 1.7852185199433794
vt -1.0238542350261082 1.6395965848755016
vt -0.9896865038370737 1.4678238005125288
vt -1.0238542350261082 1.2960510161495564
vt -1.1211557012509354 1.1504290810816784
vt -1.2667776363188132 1.0531276148568514
vt -1.4385504206817858 1.0189598836678169
vt -1.6103232050447585 1.0531276148568514
vt -1.7559451401126362 1.1504290810816784
vt -1.8532466063374635 1.2960510161495562
vt -1.887414337526498 1.4678238005125288
vt -1.8532466063374635 1.6395965848755019
vt -1.7559451401126365 1.7852185199433794
vt -1.610323205044759 1.8825199861682065
vt 1.610323205044759 1.8825199861682065
vt 1.7559451401126365 1.7852185199433794
vt 1.8532466063374635 1.6395965848755019
vt 1.887414337526498 1.4678238005125288
vt 1.8532466063374635 1.2960510161495562
vt 1.7559451401126362 1.1504290810816784
vt 1.6103232050447585 1.0531276148568514
vt 1.4385504206817858 1.0189598836678169
vt 1.2667776363188132 1.0531276148568514
vt 1.1211557012509354 1.1504290810816784
vt 1.0238542350261082 1.2960510161495564
vt 0.9896865038370737 1.4678238005125288
vt 1.0238542350261082 1.6395965848755016
vt 1.1211557012509354 1.7852185199433794
vt 1.2667776363188132 1.8825199861682065
vt 1.4385504206817858 1.9166877173572412
vt 0.2585299356672017 1.994072087262054
vt 0.333566329094833 2.1029574866632763
vt 0.5204689979866024 2.1029574866632763
vt 0.5955053914142336 1.994072087262054
vt -0.5955053914142336 1.994072087262054
vt -0.5204689979866024 2.1029574866632763
vt -0.333566329094833 2.1029574866632763
vt -0.2585299356672017 1.994072087262054
vt 1.348509006816095 0.40449460858576636
vt 1.348509006816095 0.7414700643327983
vt 1.702845492192986 0.7414700643327983
vt 1.702845492192986 0.40449460858576636
vt 1.348509006816095 1.994072087262054
vt 1.42741128729098 2.1029574866632763
vt 1.623943211718101 2.1029574866632763
vt 1.702845492192986 1.994072087262054
vt 1.42741128729098 1.333566329094833
vt 1.42741128729098 1.5204689979866024
vt 1.623943211718101 1.5204689979866024
vt 1.623943211718101 1.333566329094833
vt -1.702845492192986 1.994072087262054
vt -1.623943211718101 2.1029574866632763
vt -1.42741128729098 2.1029574866632763
vt -1.348509006816095 1.994072087262054
vt -0.011418671773645306 0.9431794207450723
vt -2.1515267631028925 0.9431794207450723
vt -2.1515267631028925 1.994072087262054
vt -0.011418671773645306 1.994072087262054
vt 0.89427304996974 0.9431794207450723
vt 0.08200704061935132 0.9431794207450723
vt 0.08200704061935132 1.994072087262054
vt 0.89427304996974 1.994072087262054
vt 2.1515267631028925 0.9431794207450723
vt 0.011418671773645306 0.9431794207450723
vt 0.011418671773645306 1.994072087262054
vt 2.1515267631028925 1.994072087262054
vt -0.08200704061935132 0.9431794207450723
vt -0.89427304996974 0.9431794207450723
vt -0.89427304996974 1.994072087262054
vt -0.08200704061935132 1.994072087262054
vt 0.011418671773645306 0.9179929593806486
vt 2.1515267631028925 0.9179929593806486
vt 2.1515267631028925 0.10572695003026
vt 0.011418671773645306 0.10572695003026
vt 0.011418671773645306 1.89427304996974
vt 2.1515267631028925 1.89427304996974
vt 2.1515267631028925 1.0820070406193514
vt 0.011418671773645306 1.0820070406193514
# 144 uvs
vn -0.1950903220161295 0.9807852804032301 0
vn -0.1950903220161295 0.9807852804032301 0
vn -0.1950903220161295 0.9807852804032301 0
vn -0.1950903220161295 0.9807852804032301 0
vn -0.555570233019602 0.8314696123025453 0
vn -0.555570233019602 0.8314696123025453 0
vn -0.555570233019602 0.8314696123025453 0
vn -0.555570233019602 0.8314696123025453 0
vn -0.8314696123025451 0.5555702330196025 0
vn -0.8314696123025451 0.5555702330196025 0
vn -0.8314696123025451 0.5555702330196025 0
vn -0.8314696123025451 0.5555702330196025 0
vn -0.9807852804032304 0.19509032201612886 0
vn -0.9807852804032304 0.19509032201612886 0
vn -0.9807852804032304 0.19509032201612886 0
vn -0.9807852804032304 0.19509032201612886 0
vn -0.9807852804032302 -0.1950903220161291 0
vn -0.9807852804032302 -0.1950903220161291 0
vn -0.9807852804032302 -0.1950903220161291 0
vn -0.9807852804032302 -0.1950903220161291 0
vn -0.831469612302545 -0.5555702330196024 0
vn -0.831469612302545 -0.5555702330196024 0
vn -0.831469612302545 -0.5555702330196024 0
vn -0.831469612302545 -0.5555702330196024 0
vn -0.5555702330196027 -0.8314696123025449 0
vn -0.5555702330196027 -0.8314696123025449 0
vn -0.5555702330196027 -0.8314696123025449 0
vn -0.5555702330196027 -0.8314696123025449 0
vn -0.1950903220161283 -0.9807852804032305 0
vn -0.1950903220161283 -0.9807852804032305 0
vn -0.1950903220161283 -0.9807852804032305 0
vn -0.1950903220161283 -0.9807852804032305 0
vn 0.1950903220161283 -0.9807852804032305 0
vn 0.1950903220161283 -0.9807852804032305 0
vn 0.1950903220161283 -0.9807852804032305 0
vn 0.1950903220161283 -0.9807852804032305 0
vn 0.5555702330196014 -0.8314696123025459 0
vn 0.5555702330196014 -0.8314696123025459 0
vn 0.5555702330196014 -0.8314696123025459 0
vn 0.5555702330196014 -0.8314696123025459 0
vn 0.8314696123025452 -0.5555702330196023 0
vn 0.8314696123025452 -0.5555702330196023 0
vn 0.8314696123025452 -0.5555702330196023 0
vn 0.8314696123025452 -0.5555702330196023 0
vn 0.9807852804032304 -0.19509032201612886 0
vn 0.9807852804032304 -0.19509032201612886 0
vn 0.9807852804032304 -0.19509032201612886 0
vn 0.9807852804032304 -0.19509032201612886 0
vn 0.9807852804032302 0.19509032201612858 0
vn 0.9807852804032302 0.19509032201612858 0
vn 0.9807852804032302 0.19509032201612858 0
vn 0.9807852804032302 0.19509032201612858 0
vn 0.831469612302545 0.5555702330196026 0
vn 0.831469612302545 0.5555702330196026 0
vn 0.831469612302545 0.5555702330196026 0
vn 0.831469612302545 0.5555702330196026 0
vn 0.555570233019604 0.8314696123025442 0
vn 0.555570233019604 0.8314696123025442 0
vn 0.555570233019604 0.8314696123025442 0
vn 0.555570233019604 0.8314696123025442 0
vn 0.19509032201612875 0.9807852804032303 0
vn 0.19509032201612875 0.9807852804032303 0
vn 0.19509032201612875 0.9807852804032303 0
vn 0.19509032201612875 0.9807852804032303 0
vn -1.4061809913520813e-17 0 -1
vn -1.4061809913520813e-17 0 -1
vn -1.4061809913520813e-17 0 -1
vn -1.4061809913520813e-17 0 -1
vn -1.4061809913520813e-17 0 -1
vn -1.4061809913520813e-17 0 -1
vn -1.4061809913520813e-17 0 -1
vn -1.4061809913520813e-17 0 -1
vn -1.4061809913520813e-17 0 -1
vn -1.4061809913520813e-17 0 -1
vn -1.4061809913520813e-17 0 -1
vn -1.4061809913520813e-17 0 -1
vn -1.4061809913520813e-17 0 -1
vn -1.4061809913520813e-17 0 -1
vn -1.4061809913520813e-17 0 -1
vn -1.4061809913520813e-17 0 -1
vn 4.49977917232666e-17 0 1
vn 4.49977917232666e-17 0 1
vn 4.49977917232666e-17 0 1
vn 4.49977917232666e-17 0 1
vn 4.49977917232666e-17 0 1
vn 4.49977917232666e-17 0 1
vn 4.49977917232666e-17 0 1
vn 4.49977917232666e-17 0 1
vn 4.49977917232666e-17 0 1
vn 4.49977917232666e-17 0 1
vn 4.49977917232666e-17 0 1
vn 4.49977917232666e-17 0 1
vn 4.49977917232666e-17 0 1
vn 4.49977917232666e-17 0 1
vn 4.49977917232666e-17 0 1
vn 4.49977917232666e-17 0 1
vn 0.8097504889088776 0.5867743567265304 0
vn 0.8097504889088776 0.5867743567265304 0
vn 0.8097504889088776 0.5867743567265304 0
vn 0.8097504889088776 0.5867743567265304 0
vn -0.8097504889088765 0.586774356726532 0
vn -0.8097504889088765 0.586774356726532 0
vn -0.8097504889088765 0.586774356726532 0
vn -0.8097504889088765 0.586774356726532 0
vn 0 -1 0
vn 0 -1 0
vn 0 -1 0
vn 0 -1 0
vn 0 0.5674408836576563 0.8234141385437939
vn 0 0.5674408836576563 0.8234141385437939
vn 0 0.5674408836576563 0.8234141385437939
vn 0 0.5674408836576563 0.8234141385437939
vn 0 1 0
vn 0 1 0
vn 0 1 0
vn 0 1 0
vn 0 0.5674408836576561 -0.8234141385437941
vn 0 0.5674408836576561 -0.8234141385437941
vn 0 0.5674408836576561 -0.8234141385437941
vn 0 0.5674408836576561 -0.8234141385437941
vn 0 0 -1
vn 0 0 -1
vn 0 0 -1
vn 0 0 -1
vn 1 0 0
vn 1 0 0
vn 1 0 0
vn 1 0 0
vn 0 0 1
vn 0 0 1
vn 0 0 1
vn 0 0 1
vn -1 0 0
vn -1 0 0
vn -1 0 0
vn -1 0 0
vn 0 -1 0
vn 0 -1 0
vn 0 -1 0
vn 0 -1 0
vn 0 1 0
vn 0 1 0
vn 0 1 0
vn 0 1 0
# 144 normals
usemtl #ff91a0ce
f 4/4/4 3/3/3 2/2/2 1/1/1 
f 6/8/8 4/7/7 1/6/6 5/5/5 
f 8/12/12 6/11/11 5/10/10 7/9/9 
f 10/16/16 8/15/15 7/14/14 9/13/13 
f 12/20/20 10/19/19 9/18/18 11/17/17 
f 14/24/24 12/23/23 11/22/22 13/21/21 
f 16/28/28 14/27/27 13/26/26 15/25/25 
f 18/32/32 16/31/31 15/30/30 17/29/29 
f 20/36/36 18/35/35 17/34/34 19/33/33 
f 22/40/40 20/39/39 19/38/38 21/37/37 
f 24/44/44 22/43/43 21/42/42 23/41/41 
f 26/48/48 24/47/47 23/46/46 25/45/45 
f 28/52/52 26/51/51 25/50/50 27/49/49 
f 30/56/56 28/55/55 27/54/54 29/53/53 
f 32/60/60 30/59/59 29/58/58 31/57/57 
f 3/64/64 32/63/63 31/62/62 2/61/61 
f 31/80/80 29/79/79 27/78/78 25/77/77 23/76/76 21/75/75 19/74/74 17/73/73 15/72/72 13/71/71 11/70/70 9/69/69 7/68/68 5/67/67 1/66/66 2/65/65 
f 3/96/96 4/95/95 6/94/94 8/93/93 10/92/92 12/91/91 14/90/90 16/89/89 18/88/88 20/87/87 22/86/86 24/85/85 26/84/84 28/83/83 30/82/82 32/81/81 
usemtl #ffc0996a
f 36/100/100 35/99/99 34/98/98 33/97/97 
f 40/104/104 39/103/103 38/102/102 37/101/101 
f 36/108/108 33/107/107 40/106/106 37/105/105 
f 33/112/112 34/111/111 39/110/110 40/109/109 
f 37/120/120 38/119/119 35/118/118 36/117/117 
usemtl #ff009865
f 34/116/116 35/115/115 38/114/114 39/113/113 
usemtl #ffb28a6c
f 44/124/124 43/123/123 42/122/122 41/121/121 
f 43/128/128 46/127/127 45/126/126 42/125/125 
f 46/132/132 48/131/131 47/130/130 45/129/129 
f 48/136/136 44/135/135 41/134/134 47/133/133 
f 41/140/140 42/139/139 45/138/138 47/137/137 
f 48/144/144 46/143/143 43/142/142 44/141/141 
