# OBJ generated by ONSHAPE BY PTC INC, 1.214 Units = meters
mtllib table.mtl
v -0.355 -0.6085 0.05 
v -0.355 -0.6085 0 
v 0.355 -0.6085 0 
v 0.355 -0.6085 0.05 
v 0.355 0.6085 0 
v 0.355 0.6085 0.05 
v -0.355 0.6085 0 
v -0.355 0.6085 0.05 
v -0.322639 -0.5885 0.05 
v -0.33118 -0.576744 0.05 
v -0.345 -0.581235 0.05 
v -0.33118 -0.585725 0.05 
v -0.336459 -0.58401 0.05 
v -0.345 -0.595765 0.05 
v -0.339721 -0.5885 0.05 
v -0.33118 -0.600256 0.05 
v -0.336459 -0.59299 0.05 
v -0.33118 -0.591275 0.05 
v -0.33118 -0.576744 0.04 
v -0.336459 -0.58401 0.04 
v -0.33118 -0.585725 0.04 
v -0.336459 -0.59299 0.04 
v -0.33118 -0.591275 0.04 
v -0.345 -0.581235 0.04 
v -0.339721 -0.5885 0.04 
v -0.322639 -0.5885 0.04 
v -0.33118 -0.600256 0.04 
v -0.345 -0.595765 0.04 
vn 0 -1 0 
vn 1 0 0 
vn 0 1 0 
vn -1 0 0 
vn 0 0 -1 
vn 0 0 1 
vn 0.809017 -0.587785 0 
vn -0.309017 -0.951057 0 
vn 0.809017 0.587785 0 
vn 0.809017 -0.587785 0 
vn -0.309017 0.951057 0 
vn 0.809017 0.587785 0 
vn -1 1.23625e-14 0 
vn -0.309017 0.951057 0 
vn -0.309017 -0.951057 0 
vn -1 1.23625e-14 0 
usemtl 0.615686_0.811765_0.929412_0.000000_0.000000
o mesh0
f 1//1 2//1 3//1 
f 3//1 4//1 1//1 
o mesh1
f 4//2 3//2 5//2 
f 5//2 6//2 4//2 
o mesh2
f 6//3 5//3 7//3 
f 7//3 8//3 6//3 
o mesh3
f 8//4 7//4 2//4 
f 2//4 1//4 8//4 
o mesh4
f 5//5 3//5 2//5 
f 2//5 7//5 5//5 
o mesh5
f 9//6 6//6 10//6 
f 8//6 11//6 10//6 
f 10//6 12//6 9//6 
f 11//6 13//6 10//6 
f 11//6 1//6 14//6 
f 10//6 6//6 8//6 
f 14//6 15//6 11//6 
f 16//6 17//6 14//6 
f 11//6 8//6 1//6 
f 1//6 4//6 16//6 
f 14//6 1//6 16//6 
f 16//6 4//6 9//6 
f 9//6 18//6 16//6 
f 9//6 4//6 6//6 
o mesh6
f 19//7 10//7 13//7 
f 13//7 20//7 19//7 
o mesh7
f 21//6 22//6 23//6 
f 20//6 24//6 25//6 
f 23//6 26//6 21//6 
f 25//6 22//6 20//6 
f 22//6 27//6 23//6 
f 22//6 19//6 20//6 
f 25//6 28//6 22//6 
f 21//6 19//6 22//6 
o mesh8
f 20//8 13//8 11//8 
f 11//8 24//8 20//8 
o mesh9
f 24//9 11//9 15//9 
f 15//9 25//9 24//9 
o mesh10
f 25//10 15//10 14//10 
f 14//10 28//10 25//10 
o mesh11
f 28//11 14//11 17//11 
f 17//11 22//11 28//11 
o mesh12
f 22//12 17//12 16//12 
f 16//12 27//12 22//12 
o mesh13
f 27//13 16//13 18//13 
f 18//13 23//13 27//13 
o mesh14
f 23//14 18//14 9//14 
f 9//14 26//14 23//14 
o mesh15
f 26//15 9//15 12//15 
f 12//15 21//15 26//15 
o mesh16
f 21//16 12//16 10//16 
f 10//16 19//16 21//16 
